<svg width="15" height="14" viewBox="0 0 15 14" fill="none" xmlns="http://www.w3.org/2000/svg">
<g clip-path="url(#clip0_1035_3806)">
<path d="M1.26047 1.3125C0.896796 1.3125 0.604218 1.60508 0.604218 1.96875V3.28125C0.604218 3.64492 0.896796 3.9375 1.26047 3.9375H2.57297C2.93664 3.9375 3.22922 3.64492 3.22922 3.28125V1.96875C3.22922 1.60508 2.93664 1.3125 2.57297 1.3125H1.26047ZM5.41672 1.75C4.93273 1.75 4.54172 2.14102 4.54172 2.625C4.54172 3.10898 4.93273 3.5 5.41672 3.5H13.2917C13.7757 3.5 14.1667 3.10898 14.1667 2.625C14.1667 2.14102 13.7757 1.75 13.2917 1.75H5.41672ZM5.41672 6.125C4.93273 6.125 4.54172 6.51602 4.54172 7C4.54172 7.48398 4.93273 7.875 5.41672 7.875H13.2917C13.7757 7.875 14.1667 7.48398 14.1667 7C14.1667 6.51602 13.7757 6.125 13.2917 6.125H5.41672ZM5.41672 10.5C4.93273 10.5 4.54172 10.891 4.54172 11.375C4.54172 11.859 4.93273 12.25 5.41672 12.25H13.2917C13.7757 12.25 14.1667 11.859 14.1667 11.375C14.1667 10.891 13.7757 10.5 13.2917 10.5H5.41672ZM0.604218 6.34375V7.65625C0.604218 8.01992 0.896796 8.3125 1.26047 8.3125H2.57297C2.93664 8.3125 3.22922 8.01992 3.22922 7.65625V6.34375C3.22922 5.98008 2.93664 5.6875 2.57297 5.6875H1.26047C0.896796 5.6875 0.604218 5.98008 0.604218 6.34375ZM1.26047 10.0625C0.896796 10.0625 0.604218 10.3551 0.604218 10.7188V12.0312C0.604218 12.3949 0.896796 12.6875 1.26047 12.6875H2.57297C2.93664 12.6875 3.22922 12.3949 3.22922 12.0312V10.7188C3.22922 10.3551 2.93664 10.0625 2.57297 10.0625H1.26047Z" fill="#AAAAAA"/>
</g>
<defs>
<clipPath id="clip0_1035_3806">
<rect width="14" height="14" fill="white" transform="translate(0.166718)"/>
</clipPath>
</defs>
</svg>
