<svg width="32" height="32" viewBox="0 0 32 32" fill="none" xmlns="http://www.w3.org/2000/svg">
<path d="M6 2.66675H5.26L4.925 3.33175C3.87 5.44175 2.085 6.90175 0.125 8.22675L1.47 10.2167C2.585 9.46175 3.75 8.60175 4.8 7.53675V15.0667H0.8H0V15.8667V19.0667V19.8667H0.8H4.8V27.0667V27.8667H5.6H8.8H9.6V27.0667V19.8667H22.4V27.0667V27.8667H23.2H26.4H27.2V27.0667V19.8667H31.2H32V19.0667V15.8667V15.0667H31.2H27.2V7.53675C28.25 8.60175 29.415 9.46175 30.53 10.2167L31.875 8.22675C29.915 6.90175 28.13 5.44175 27.075 3.33175L26.74 2.66675H26H25.2H24.505L24.16 3.27175C22.38 6.38675 19.47 8.26675 16 8.26675C12.53 8.26675 9.62 6.38675 7.84 3.27175L7.495 2.66675H6.8H6ZM24 7.38675V15.0667H22V8.96175C22.72 8.51175 23.385 7.98175 24 7.38175V7.38675ZM10 15.0667H8V7.38675C8.615 7.98675 9.28 8.51675 10 8.96675V15.0667ZM14.8 15.0667H12.4V10.0917C13.165 10.3467 13.965 10.5167 14.8 10.6067V15.0667ZM19.6 15.0667H17.2V10.6067C18.035 10.5217 18.835 10.3467 19.6 10.0967V15.0667Z" fill="#CCCCCC"/>
</svg>
