<svg width="32" height="32" viewBox="0 0 32 32" fill="none" xmlns="http://www.w3.org/2000/svg">
<path d="M7.44444 30C5.94074 30 4.65741 29.4685 3.59444 28.4056C2.53148 27.3426 2 26.0593 2 24.5556C2 23.0519 2.53148 21.7685 3.59444 20.7056C4.65741 19.6426 5.94074 19.1111 7.44444 19.1111H9.77778V12.8889H7.44444C5.94074 12.8889 4.65741 12.3574 3.59444 11.2944C2.53148 10.2315 2 8.94815 2 7.44444C2 5.94074 2.53148 4.65741 3.59444 3.59444C4.65741 2.53148 5.94074 2 7.44444 2C8.94815 2 10.2315 2.53148 11.2944 3.59444C12.3574 4.65741 12.8889 5.94074 12.8889 7.44444V9.77778H19.1111V7.44444C19.1111 5.94074 19.6426 4.65741 20.7056 3.59444C21.7685 2.53148 23.0519 2 24.5556 2C26.0593 2 27.3426 2.53148 28.4056 3.59444C29.4685 4.65741 30 5.94074 30 7.44444C30 8.94815 29.4685 10.2315 28.4056 11.2944C27.3426 12.3574 26.0593 12.8889 24.5556 12.8889H22.2222V19.1111H24.5556C26.0593 19.1111 27.3426 19.6426 28.4056 20.7056C29.4685 21.7685 30 23.0519 30 24.5556C30 26.0593 29.4685 27.3426 28.4056 28.4056C27.3426 29.4685 26.0593 30 24.5556 30C23.0519 30 21.7685 29.4685 20.7056 28.4056C19.6426 27.3426 19.1111 26.0593 19.1111 24.5556V22.2222H12.8889V24.5556C12.8889 26.0593 12.3574 27.3426 11.2944 28.4056C10.2315 29.4685 8.94815 30 7.44444 30ZM7.44444 26.8889C8.09259 26.8889 8.64326 26.6618 9.09644 26.2076C9.55067 25.7544 9.77778 25.2037 9.77778 24.5556V22.2222H7.44444C6.7963 22.2222 6.24563 22.4493 5.79244 22.9036C5.33822 23.3567 5.11111 23.9074 5.11111 24.5556C5.11111 25.2037 5.33822 25.7544 5.79244 26.2076C6.24563 26.6618 6.7963 26.8889 7.44444 26.8889ZM24.5556 26.8889C25.2037 26.8889 25.7544 26.6618 26.2076 26.2076C26.6618 25.7544 26.8889 25.2037 26.8889 24.5556C26.8889 23.9074 26.6618 23.3567 26.2076 22.9036C25.7544 22.4493 25.2037 22.2222 24.5556 22.2222H22.2222V24.5556C22.2222 25.2037 22.4493 25.7544 22.9036 26.2076C23.3567 26.6618 23.9074 26.8889 24.5556 26.8889ZM12.8889 19.1111H19.1111V12.8889H12.8889V19.1111ZM7.44444 9.77778H9.77778V7.44444C9.77778 6.7963 9.55067 6.24563 9.09644 5.79244C8.64326 5.33822 8.09259 5.11111 7.44444 5.11111C6.7963 5.11111 6.24563 5.33822 5.79244 5.79244C5.33822 6.24563 5.11111 6.7963 5.11111 7.44444C5.11111 8.09259 5.33822 8.64326 5.79244 9.09644C6.24563 9.55067 6.7963 9.77778 7.44444 9.77778ZM22.2222 9.77778H24.5556C25.2037 9.77778 25.7544 9.55067 26.2076 9.09644C26.6618 8.64326 26.8889 8.09259 26.8889 7.44444C26.8889 6.7963 26.6618 6.24563 26.2076 5.79244C25.7544 5.33822 25.2037 5.11111 24.5556 5.11111C23.9074 5.11111 23.3567 5.33822 22.9036 5.79244C22.4493 6.24563 22.2222 6.7963 22.2222 7.44444V9.77778Z" fill="#CCCCCC"/>
</svg>
