<svg width="15" height="12" viewBox="0 0 15 12" fill="none" xmlns="http://www.w3.org/2000/svg">
<path d="M1.26047 0.3125C0.896796 0.3125 0.604218 0.605078 0.604218 0.96875V2.28125C0.604218 2.64492 0.896796 2.9375 1.26047 2.9375H2.57297C2.93664 2.9375 3.22922 2.64492 3.22922 2.28125V0.96875C3.22922 0.605078 2.93664 0.3125 2.57297 0.3125H1.26047ZM5.41672 0.75C4.93273 0.75 4.54172 1.14102 4.54172 1.625C4.54172 2.10898 4.93273 2.5 5.41672 2.5H13.2917C13.7757 2.5 14.1667 2.10898 14.1667 1.625C14.1667 1.14102 13.7757 0.75 13.2917 0.75H5.41672ZM5.41672 5.125C4.93273 5.125 4.54172 5.51602 4.54172 6C4.54172 6.48398 4.93273 6.875 5.41672 6.875H13.2917C13.7757 6.875 14.1667 6.48398 14.1667 6C14.1667 5.51602 13.7757 5.125 13.2917 5.125H5.41672ZM5.41672 9.5C4.93273 9.5 4.54172 9.89102 4.54172 10.375C4.54172 10.859 4.93273 11.25 5.41672 11.25H13.2917C13.7757 11.25 14.1667 10.859 14.1667 10.375C14.1667 9.89102 13.7757 9.5 13.2917 9.5H5.41672ZM0.604218 5.34375V6.65625C0.604218 7.01992 0.896796 7.3125 1.26047 7.3125H2.57297C2.93664 7.3125 3.22922 7.01992 3.22922 6.65625V5.34375C3.22922 4.98008 2.93664 4.6875 2.57297 4.6875H1.26047C0.896796 4.6875 0.604218 4.98008 0.604218 5.34375ZM1.26047 9.0625C0.896796 9.0625 0.604218 9.35508 0.604218 9.71875V11.0312C0.604218 11.3949 0.896796 11.6875 1.26047 11.6875H2.57297C2.93664 11.6875 3.22922 11.3949 3.22922 11.0312V9.71875C3.22922 9.35508 2.93664 9.0625 2.57297 9.0625H1.26047Z" fill="#AAAAAA"/>
</svg>
